<svg xmlns="http://www.w3.org/2000/svg" width="36" height="36" fill="none"><g clip-path="url(#a)"><path fill="#DE1C59" d="M9.749 21.027a2.814 2.814 0 0 1-2.807 2.809 2.815 2.815 0 0 1-2.81-2.81 2.816 2.816 0 0 1 2.81-2.808h2.807v2.809zm1.415 0a2.816 2.816 0 0 1 2.81-2.81 2.816 2.816 0 0 1 2.808 2.81v7.031a2.816 2.816 0 0 1-2.809 2.81 2.816 2.816 0 0 1-2.809-2.81v-7.031z"/><path fill="#35C5F0" d="M13.973 9.749a2.814 2.814 0 0 1-2.809-2.807 2.815 2.815 0 0 1 2.81-2.81 2.816 2.816 0 0 1 2.808 2.81v2.807h-2.809zm0 1.415a2.816 2.816 0 0 1 2.81 2.81 2.816 2.816 0 0 1-2.81 2.808H6.942a2.815 2.815 0 0 1-2.81-2.809 2.816 2.816 0 0 1 2.81-2.809h7.031z"/><path fill="#2EB57D" d="M25.251 13.973a2.814 2.814 0 0 1 2.807-2.809 2.816 2.816 0 0 1 2.81 2.81 2.816 2.816 0 0 1-2.81 2.808h-2.807v-2.809zm-1.415 0a2.816 2.816 0 0 1-2.81 2.81 2.816 2.816 0 0 1-2.808-2.81V6.942a2.815 2.815 0 0 1 2.809-2.81 2.816 2.816 0 0 1 2.809 2.81v7.031z"/><path fill="#EBB02E" d="M21.027 25.251a2.814 2.814 0 0 1 2.809 2.807 2.816 2.816 0 0 1-2.81 2.81 2.816 2.816 0 0 1-2.808-2.81v-2.807h2.809zm0-1.415a2.816 2.816 0 0 1-2.81-2.81 2.816 2.816 0 0 1 2.81-2.808h7.031a2.816 2.816 0 0 1 2.81 2.809 2.816 2.816 0 0 1-2.81 2.809h-7.031z"/></g><defs><clipPath id="a"><path fill="#fff" d="M4 4h27v27H4z"/></clipPath></defs></svg>